<svg xmlns="http://www.w3.org/2000/svg" xmlns:xlink="http://www.w3.org/1999/xlink" width="470" height="468" id="voice">
  <defs>
    <filter id="a" width="111.8%" height="111.9%" x="-5.9%" y="-3.9%" filterUnits="objectBoundingBox">
      <feOffset dy="5" in="SourceAlpha" result="shadowOffsetOuter1"></feOffset>
      <feGaussianBlur in="shadowOffsetOuter1" result="shadowBlurOuter1" stdDeviation="4"></feGaussianBlur>
      <feColorMatrix in="shadowBlurOuter1" result="shadowMatrixOuter1" values="0 0 0 0 0 0 0 0 0 0 0 0 0 0 0 0 0 0 0.078125 0"></feColorMatrix>
      <feOffset dy="4" in="SourceAlpha" result="shadowOffsetOuter2"></feOffset>
      <feGaussianBlur in="shadowOffsetOuter2" result="shadowBlurOuter2" stdDeviation="5.5"></feGaussianBlur>
      <feColorMatrix in="shadowBlurOuter2" result="shadowMatrixOuter2" values="0 0 0 0 0 0 0 0 0 0 0 0 0 0 0 0 0 0 0.210824275 0"></feColorMatrix>
      <feMerge>
        <feMergeNode in="shadowMatrixOuter1"></feMergeNode>
        <feMergeNode in="shadowMatrixOuter2"></feMergeNode>
      </feMerge>
    </filter>
    <path id="b" d="M9.635 132.808C24.782 59.782 71.388 19.109 144.085 6.822c53.74-9.081 107.5-9.196 161.15.255 74.852 13.185 119.85 56.23 134.185 130.36 11.075 57.29 11.249 115.191-.174 172.427-15.324 72.52-63.132 117.285-135.561 129.527-53.74 9.08-107.5 9.195-161.15-.255-74.852-13.186-120.05-58.38-134.384-132.509-11.64-57.668-10.52-115.935 1.484-173.82z"></path>
  </defs>
  <g fill="none" fill-rule="evenodd">
    <g transform="translate(11 7)">
      <use xlink:href="#b" fill="#000" filter="url(#a)"></use>
      <use xlink:href="#b" fill="#F8F9F9"></use>
    </g>
    <path fill="#FF5439" d="M247.744 130c-1.962-15.231-14.979-27-30.744-27-16.109 0-29.348 12.287-30.857 28H186v151.592h-.041c.027.33.041.663.041 1 0 6.627-5.373 12-12 12s-12-5.373-12-12c0-.337.014-.67.041-1H162V211c0-17.12-13.88-31-31-31-17.12 0-31 13.88-31 31 0 .335.005.668.016 1H100v14H73v19h41.994a3.998 3.998 0 0 0 4.006-3.997V212h.041a12.16 12.16 0 0 1-.041-1c0-6.627 5.373-12 12-12s12 5.373 12 12c0 .337-.014.67-.041 1H143v72h.003c.218 16.933 14.012 30.592 30.997 30.592 17.12 0 31-13.88 31-31 0-.703-.023-1.4-.07-2.092h.07V135h.041a12.16 12.16 0 0 1-.041-1c0-6.627 5.373-12 12-12s12 5.373 12 12c0 .337-.014.67-.041 1H229v222h19V130h-.256zm82.225 131c-.737 16.467-14.32 29.592-30.969 29.592-17.12 0-31-13.88-31-31 0-.198.002-.395.006-.592H268V143h19v115.592h.041c-.027.33-.041.663-.041 1 0 6.627 5.373 12 12 12s12-5.373 12-12c0-.337-.014-.67-.041-1H311V209h.063c1.031-16.189 14.488-29 30.937-29 16.786 0 30.456 13.342 30.984 30H373v10h24v19h-38.994a4.004 4.004 0 0 1-4.006-4.002V212h-.041c.027-.33.041-.663.041-1 0-6.627-5.373-12-12-12s-12 5.373-12 12c0 .337.014.67.041 1H330v49h-.031z"></path>
  </g>
</svg>
